<svg width="396" height="190" viewBox="0 0 396 190" fill="none" xmlns="http://www.w3.org/2000/svg">
<path d="M49.4 164.8V113.8H129.4V164.8H49.4ZM127 108H51L24.8 97.8V190H28.6C38.8 190 49.4 184.4 49.4 182.2V170.4H129.4V188H133.4C141.6 188 153.8 183.6 154.2 182.4V118.6C159 117.6 162 115.6 163.4 113.8L138.8 95L127 108ZM108.8 31.6C119 39.8 129.8 50.8 138.6 62.6C106 63.8 74.6 64.6 49 65.2C65.8 49 81.4 29.8 91.4 15.4C96.2 15.6 98.6 13.8 99.4 11.4L64 0.599989C58.4 19.4 48.2 45 38 65.4C22.2 65.8 9.4 65.8 0.800001 65.8L8.2 95.4C10.6 95 13.2 93.4 14.6 91C71.2 82.4 112.6 75.2 143 68.8C147.8 76 151.8 83.4 154.4 90.6C181.2 106.6 195.8 49.6 110.6 30L108.8 31.6ZM257.2 2C254.4 10.4 251.4 19.8 248.8 26.6C246.4 25.6 243.6 24.6 240 24L237.8 25.4C242.2 29.6 246.8 37 247.6 43.2C256.4 49.4 264.8 37.6 253.8 29.4C258.6 24.6 264.2 18.4 268.6 13C272.6 13.2 275 11.6 276 9.4L257.2 2ZM201.2 4.99999C207.4 13 214.4 25.4 216 36.2C233.8 49.6 251.4 14.8 203.2 3.8L201.2 4.99999ZM192.6 52.6C198.2 60.6 204.2 72.6 205.2 82.8C222.2 96.8 240.4 63.4 194.4 51.4L192.6 52.6ZM236.4 42.2C212.2 117.8 212.2 117.8 209.2 125C207.2 129.2 206.6 129.2 204 129.2H195.6V133.2C199.8 133.6 202.8 134.2 205.4 136.2C209.6 139.4 210.6 158.6 207 179.2C208 186.8 212.2 189.8 216.4 189.8C225 189.8 230.8 183.4 231.2 173.6C232 155.4 224.4 147 224 136.8C224 131.6 224.6 124.8 225.8 118.4C227.2 108.2 235.4 65.8 239.8 42.8L236.4 42.2ZM287.6 41.4L289.2 47H324.8C327.6 47 329.4 46.2 330 44C324.6 39 316.4 32.8 316.4 32.8L309.4 41.4H287.6ZM312.4 76V90.8H302.2V76H312.4ZM346.4 149.8H269.4C270.8 145.4 272.2 140.8 273.2 137.2H340V142.6H343.6C350.2 142.6 360.6 139 360.8 137.6V120.4C363.8 119.8 366 118.2 367 117L353 106.6C359.4 106.2 363.6 103.8 363.6 103V60.2L370.4 58.4C371.2 60.8 371.8 63 372 65C382.8 74 395.2 53.4 365.6 44L363.6 45C365.2 47.4 367 50.6 368.6 54C361.8 54.2 355.2 54.4 349.2 54.6C357.6 47.2 366 38.6 371.6 32C375.8 32.6 378.4 31.2 379.6 29L360.6 20.8C356.2 31 349 44.4 342.6 54.6C336.8 54.8 331.8 54.8 328.4 54.8L329.4 57.2C324.2 52.6 316.8 47 316.8 47L309.8 55.6H287.8C285.8 51.6 281 47.6 272.2 44.4L269.8 45.4C271.4 47.8 273 50.8 274.2 54.2C268.2 54.4 262.4 54.6 257 54.6C265.4 47.2 273.8 38.4 279.2 31.6C280.6 31.8 281.8 31.8 282.8 31.6L283.2 32.8H330.2C331.8 32.8 333 32.4 334 31.6C336.6 35.2 338.6 39.2 339.4 42.8C348.4 48.6 356.4 36.6 345.2 28.6C350 24 355.4 18 360 12.6C363.8 12.8 366.2 11.2 367.2 8.99999L347.6 1.59999C345.4 9.99999 342.4 19 340 25.8C337.2 24.6 334 23.6 330 23L328.8 23.8C326 21.6 323.2 19.4 321.6 18.2H326C328.6 18.2 330.4 17.2 331 15C325.4 9.79999 316.6 3.19999 316.6 3.19999L309.2 12.4H287L288.6 18.2H319.6L312.6 27.2H283.6L268.6 20.6C264.2 31 257 44.6 250.4 54.8C245.4 55 241.2 55 238.4 55L244.4 70C246.4 69.8 248.2 68.8 249.2 66.2L256.4 64.2V75.2L245.2 71.4C242.4 82.6 238.6 94.6 235 102.2L238.2 104C244.4 98.2 251 89.6 256 81.2H256.4V106.6H258.6C265.6 106.6 270.2 103.8 270.2 103V60.4L275.6 58.6C276.2 60.8 276.6 63 276.6 65C281.2 69.2 286.6 67.6 288.4 63.4V106H290.6C297.8 106 302.2 102.8 302.2 101.6V96.6H312.4V103.6H314.6C319.2 103.6 326.2 100.6 326.4 99.4V76.8C328.8 76.4 330.8 75.2 331.6 74.2L317.6 63.6L311.2 70.2H304.8L288.4 63.4C288.8 62.6 289 61.6 289 60.6L289.2 61.2H325.2C327.6 61.2 329.4 60.4 330.2 58.6L335.4 70.2C337.4 70 339 68.8 340.2 66.2L348.8 64V74.4L336 71C334.6 81.4 332.2 92.2 329.2 99.6L332.6 101.2C338 96 343 87.8 346.6 79.8C347.4 79.8 348.2 79.8 348.8 79.6V103.4L347.6 102.6L338.4 112.2H249.2L251 118H340V131.4H278.8L257.6 121.6C255 131.6 249.4 149.4 245 161.8C254.8 165.2 260.4 165 265.4 162.6C266.2 160.4 267 158 267.8 155.4H347.2C345.8 162 343.6 166.6 341.6 168C340.2 168.8 338.4 169 335 169C331.2 169 314.6 168.2 305.2 167.4V170C314 171.6 322.4 174 326 177C329.8 180 330.6 184.8 330.4 189.8C341 190 348.2 188.2 353.6 185.4C361.6 181 365.4 171.6 368 158.4C371.8 158 374 156.8 375.4 155.4L356.8 140.4L346.4 149.8ZM270.8 72.2C273.4 77.2 275.8 85.8 275.8 92.6C284.8 101.4 297.8 84 273.4 71.2L270.8 72.2ZM364 71.6C367.4 78 371 88.4 371 96.4C381.4 106.6 395.4 85.4 366.6 70.6L364 71.6Z" fill="white"/>
</svg>
