<svg width="60" height="66" viewBox="0 0 60 66" fill="none" xmlns="http://www.w3.org/2000/svg">
<g filter="url(#filter0_f_398_4040)">
<ellipse cx="30" cy="60" rx="10" ry="2" fill="black" fill-opacity="0.2"/>
</g>
<path d="M30 3.75C24.5319 3.75645 19.2896 5.93151 15.4231 9.79805C11.5565 13.6646 9.38147 18.9069 9.37502 24.375C9.36847 28.8435 10.8281 33.1908 13.53 36.75C13.53 36.75 14.0925 37.4906 14.1844 37.5975L30 56.25L45.8231 37.5881C45.9056 37.4888 46.47 36.75 46.47 36.75L46.4719 36.7444C49.1725 33.1868 50.6314 28.8415 50.625 24.375C50.6186 18.9069 48.4435 13.6646 44.577 9.79805C40.7104 5.93151 35.4681 3.75645 30 3.75Z" fill="#7879F1" stroke="white" stroke-width="2" stroke-linejoin="round"/>
<path d="M40.9791 20.8787L38.9103 18.81C38.7434 18.6453 38.5209 18.5492 38.2866 18.5405C38.0523 18.5318 37.8232 18.6112 37.6446 18.7631C37.3688 18.9978 37.0149 19.1204 36.653 19.1065C36.2911 19.0926 35.9477 18.9433 35.6907 18.6881C35.4356 18.4311 35.2864 18.0877 35.2725 17.726C35.2586 17.3642 35.3811 17.0104 35.6157 16.7346C35.7675 16.556 35.847 16.3269 35.8383 16.0926C35.8296 15.8583 35.7334 15.6358 35.5688 15.4689L33.4981 13.3977C33.3231 13.2231 33.086 13.125 32.8388 13.125C32.5915 13.125 32.3544 13.2231 32.1794 13.3977L28.8815 16.6952C28.6778 16.8996 28.5243 17.1483 28.4328 17.4219C28.415 17.4745 28.3853 17.5223 28.3461 17.5615C28.3068 17.6008 28.259 17.6305 28.2064 17.6483C27.9327 17.7398 27.684 17.8935 27.4798 18.0974L19.0227 26.5544C18.8481 26.7294 18.75 26.9665 18.75 27.2138C18.75 27.461 18.8481 27.6981 19.0227 27.8731L21.0939 29.9419C21.2608 30.1066 21.4833 30.2027 21.7176 30.2114C21.9519 30.2201 22.181 30.1407 22.3596 29.9888C22.6347 29.7522 22.9891 29.6282 23.3518 29.6418C23.7144 29.6555 24.0585 29.8056 24.3151 30.0622C24.5717 30.3188 24.7219 30.6629 24.7355 31.0256C24.7491 31.3882 24.6252 31.7426 24.3885 32.0177C24.2367 32.1964 24.1573 32.4254 24.1659 32.6597C24.1746 32.894 24.2708 33.1166 24.4354 33.2835L26.5042 35.3523C26.6792 35.5269 26.9163 35.625 27.1636 35.625C27.4108 35.625 27.6479 35.5269 27.8229 35.3523L36.2799 26.8952C36.4837 26.6911 36.6375 26.4426 36.7291 26.1691C36.7468 26.1163 36.7765 26.0684 36.8159 26.029C36.8552 25.9896 36.9032 25.9599 36.9559 25.9422C37.2294 25.8507 37.4779 25.6971 37.6821 25.4935L40.9796 22.1956C41.1536 22.0206 41.2513 21.7838 41.2512 21.5371C41.2511 21.2903 41.1533 21.0536 40.9791 20.8787ZM30.2733 19.4888C30.2037 19.5584 30.121 19.6137 30.0299 19.6514C29.9389 19.6891 29.8414 19.7085 29.7429 19.7085C29.6444 19.7085 29.5468 19.6891 29.4558 19.6514C29.3648 19.6137 29.2821 19.5584 29.2124 19.4888L28.6728 18.9492C28.5356 18.8078 28.4595 18.6181 28.461 18.4211C28.4625 18.2241 28.5414 18.0355 28.6808 17.8962C28.8201 17.757 29.0087 17.6781 29.2057 17.6767C29.4027 17.6753 29.5924 17.7515 29.7337 17.8888L30.2733 18.4279C30.343 18.4975 30.3982 18.5802 30.4359 18.6713C30.4736 18.7623 30.4931 18.8598 30.4931 18.9583C30.4931 19.0568 30.4736 19.1544 30.4359 19.2454C30.3982 19.3364 30.343 19.4191 30.2733 19.4888ZM32.336 21.5515C32.1953 21.692 32.0046 21.771 31.8058 21.771C31.6069 21.771 31.4162 21.692 31.2756 21.5515L30.7599 21.0358C30.6903 20.9661 30.635 20.8834 30.5973 20.7924C30.5596 20.7014 30.5402 20.6039 30.5402 20.5053C30.5402 20.4068 30.5596 20.3093 30.5973 20.2183C30.635 20.1273 30.6903 20.0446 30.7599 19.9749C30.9006 19.8342 31.0914 19.7552 31.2904 19.7552C31.3889 19.7552 31.4864 19.7746 31.5774 19.8123C31.6684 19.85 31.7511 19.9053 31.8208 19.9749L32.3365 20.4906C32.4064 20.5602 32.4619 20.643 32.4997 20.7341C32.5376 20.8252 32.5571 20.9229 32.5572 21.0216C32.5572 21.1203 32.5378 21.218 32.5 21.3092C32.4622 21.4004 32.4068 21.4832 32.3369 21.5529L32.336 21.5515ZM34.3987 23.6141C34.329 23.6838 34.2463 23.7391 34.1553 23.7768C34.0643 23.8145 33.9668 23.8339 33.8682 23.8339C33.7697 23.8339 33.6722 23.8145 33.5812 23.7768C33.4902 23.7391 33.4075 23.6838 33.3378 23.6141L32.8221 23.0985C32.6849 22.9571 32.6088 22.7674 32.6103 22.5704C32.6118 22.3734 32.6907 22.1848 32.8301 22.0455C32.9694 21.9062 33.158 21.8274 33.355 21.826C33.552 21.8246 33.7417 21.9008 33.883 22.0381L34.3987 22.5537C34.4688 22.6233 34.5245 22.706 34.5625 22.7971C34.6006 22.8882 34.6203 22.9859 34.6205 23.0846C34.6208 23.1834 34.6015 23.2812 34.5638 23.3724C34.5261 23.4637 34.4708 23.5467 34.401 23.6165L34.3987 23.6141ZM36.4815 25.7022C36.4119 25.7718 36.3292 25.8271 36.2382 25.8648C36.1472 25.9025 36.0496 25.9219 35.9511 25.9219C35.8526 25.9219 35.755 25.9025 35.664 25.8648C35.573 25.8271 35.4903 25.7718 35.4207 25.7022L34.8844 25.163C34.8132 25.0936 34.7566 25.0107 34.7178 24.9192C34.679 24.8277 34.6588 24.7293 34.6583 24.6299C34.6578 24.5305 34.6771 24.432 34.715 24.3401C34.753 24.2482 34.8088 24.1648 34.8792 24.0947C34.9497 24.0246 35.0334 23.9691 35.1255 23.9317C35.2176 23.8942 35.3162 23.8754 35.4156 23.8763C35.515 23.8773 35.6132 23.898 35.7045 23.9372C35.7959 23.9765 35.8785 24.0335 35.9476 24.105L36.4843 24.6436C36.554 24.7133 36.6092 24.796 36.6469 24.8871C36.6845 24.9781 36.7039 25.0756 36.7039 25.1742C36.7038 25.2727 36.6844 25.3702 36.6466 25.4612C36.6089 25.5522 36.5536 25.6349 36.4839 25.7045L36.4815 25.7022Z" fill="white"/>
<defs>
<filter id="filter0_f_398_4040" x="16" y="54" width="28" height="12" filterUnits="userSpaceOnUse" color-interpolation-filters="sRGB">
<feFlood flood-opacity="0" result="BackgroundImageFix"/>
<feBlend mode="normal" in="SourceGraphic" in2="BackgroundImageFix" result="shape"/>
<feGaussianBlur stdDeviation="2" result="effect1_foregroundBlur_398_4040"/>
</filter>
</defs>
</svg>
