<svg width="60" height="66" viewBox="0 0 60 66" fill="none" xmlns="http://www.w3.org/2000/svg">
<g filter="url(#filter0_f_398_4041)">
<ellipse cx="30" cy="60" rx="10" ry="2" fill="black" fill-opacity="0.2"/>
</g>
<path d="M30 3.75C24.5319 3.75645 19.2896 5.93151 15.4231 9.79805C11.5565 13.6646 9.38147 18.9069 9.37502 24.375C9.36847 28.8435 10.8281 33.1908 13.53 36.75C13.53 36.75 14.0925 37.4906 14.1844 37.5975L30 56.25L45.8231 37.5881C45.9056 37.4888 46.47 36.75 46.47 36.75L46.4719 36.7444C49.1725 33.1868 50.6314 28.8415 50.625 24.375C50.6186 18.9069 48.4435 13.6646 44.577 9.79805C40.7104 5.93151 35.4681 3.75645 30 3.75Z" fill="#00BBF0" stroke="white" stroke-width="2" stroke-linejoin="round"/>
<path d="M38.769 21.6024L33.1481 20.747L30.6354 15.4127C30.5668 15.2666 30.4539 15.1484 30.3144 15.0765C29.9646 14.8957 29.5396 15.0464 29.3647 15.4127L26.852 20.747L21.2311 21.6024C21.0761 21.6256 20.9345 21.7021 20.826 21.818C20.6948 21.9592 20.6226 22.1491 20.6251 22.346C20.6276 22.5429 20.7046 22.7307 20.8393 22.8682L24.906 27.0202L23.9453 32.8831C23.9227 33.0194 23.9371 33.1597 23.9869 33.2879C24.0366 33.4162 24.1196 33.5273 24.2266 33.6086C24.3335 33.6899 24.4601 33.7383 24.5919 33.7481C24.7237 33.758 24.8556 33.7289 24.9725 33.6643L30 30.8963L35.0276 33.6643C35.1649 33.7408 35.3243 33.7663 35.477 33.7385C35.8622 33.6689 36.1213 33.2864 36.0548 32.8831L35.094 27.0202L39.1608 22.8682C39.2715 22.7546 39.3446 22.6062 39.3667 22.4439C39.4265 22.0382 39.1564 21.6627 38.769 21.6024Z" fill="white"/>
<defs>
<filter id="filter0_f_398_4041" x="16" y="54" width="28" height="12" filterUnits="userSpaceOnUse" color-interpolation-filters="sRGB">
<feFlood flood-opacity="0" result="BackgroundImageFix"/>
<feBlend mode="normal" in="SourceGraphic" in2="BackgroundImageFix" result="shape"/>
<feGaussianBlur stdDeviation="2" result="effect1_foregroundBlur_398_4041"/>
</filter>
</defs>
</svg>
