<svg width="60" height="66" viewBox="0 0 60 66" fill="none" xmlns="http://www.w3.org/2000/svg">
<g filter="url(#filter0_f_398_4042)">
<ellipse cx="30" cy="60" rx="10" ry="2" fill="black" fill-opacity="0.2"/>
</g>
<path d="M30 3.75C24.5319 3.75645 19.2896 5.93151 15.4231 9.79805C11.5565 13.6646 9.38147 18.9069 9.37502 24.375C9.36847 28.8435 10.8281 33.1908 13.53 36.75C13.53 36.75 14.0925 37.4906 14.1844 37.5975L30 56.25L45.8231 37.5881C45.9056 37.4888 46.47 36.75 46.47 36.75L46.4719 36.7444C49.1725 33.1868 50.6314 28.8415 50.625 24.375C50.6186 18.9069 48.4435 13.6646 44.577 9.79805C40.7104 5.93151 35.4681 3.75645 30 3.75Z" fill="#FDB44B" stroke="white" stroke-width="2" stroke-linejoin="round"/>
<path d="M24.8864 24.875C26.5841 24.875 27.9545 23.535 27.9545 21.875C27.9545 20.215 26.5841 18.875 24.8864 18.875C23.1886 18.875 21.8182 20.215 21.8182 21.875C21.8182 23.535 23.1886 24.875 24.8864 24.875ZM37.1591 18.875H31.0227C29.8977 18.875 28.9773 19.775 28.9773 20.875V25.875H20.7955V17.875C20.7955 17.325 20.3352 16.875 19.7727 16.875C19.2102 16.875 18.75 17.325 18.75 17.875V30.875C18.75 31.425 19.2102 31.875 19.7727 31.875C20.3352 31.875 20.7955 31.425 20.7955 30.875V28.875H39.2045V30.875C39.2045 31.425 39.6648 31.875 40.2273 31.875C40.7898 31.875 41.25 31.425 41.25 30.875V22.875C41.25 20.665 39.4193 18.875 37.1591 18.875Z" fill="white"/>
<defs>
<filter id="filter0_f_398_4042" x="16" y="54" width="28" height="12" filterUnits="userSpaceOnUse" color-interpolation-filters="sRGB">
<feFlood flood-opacity="0" result="BackgroundImageFix"/>
<feBlend mode="normal" in="SourceGraphic" in2="BackgroundImageFix" result="shape"/>
<feGaussianBlur stdDeviation="2" result="effect1_foregroundBlur_398_4042"/>
</filter>
</defs>
</svg>
