<svg width="60" height="66" viewBox="0 0 60 66" fill="none" xmlns="http://www.w3.org/2000/svg">
<g filter="url(#filter0_f_398_4043)">
<ellipse cx="30" cy="60" rx="10" ry="2" fill="black" fill-opacity="0.2"/>
</g>
<path d="M30 3.75C24.5319 3.75645 19.2896 5.93151 15.4231 9.79805C11.5565 13.6646 9.38147 18.9069 9.37502 24.375C9.36847 28.8435 10.8281 33.1908 13.53 36.75C13.53 36.75 14.0925 37.4906 14.1844 37.5975L30 56.25L45.8231 37.5881C45.9056 37.4888 46.47 36.75 46.47 36.75L46.4719 36.7444C49.1725 33.1868 50.6314 28.8415 50.625 24.375C50.6186 18.9069 48.4435 13.6646 44.577 9.79805C40.7104 5.93151 35.4681 3.75645 30 3.75Z" fill="#FF6F6E" stroke="white" stroke-width="2" stroke-linejoin="round"/>
<path d="M38.0357 15C38.3638 15 38.6804 15.1125 38.9255 15.3159C39.1706 15.5194 39.3272 15.7997 39.3656 16.1038L39.375 16.2501V36.2513C39.3746 36.5699 39.2439 36.8764 39.0096 37.1081C38.7752 37.3398 38.455 37.4792 38.1142 37.4979C37.7734 37.5165 37.4379 37.413 37.1761 37.2085C36.9144 37.004 36.7461 36.714 36.7058 36.3976L36.6964 36.2513V30.0009H35.3571C35.0291 30.0009 34.7125 29.8885 34.4674 29.685C34.2222 29.4815 34.0656 29.2012 34.0272 28.8971L34.0179 28.7508V21.2504C34.0179 18.4877 36.0268 15 38.0357 15ZM30 15C30.328 15 30.6446 15.1125 30.8898 15.3159C31.1349 15.5194 31.2915 15.7997 31.3299 16.1038L31.3393 16.2501V22.5005C31.3391 23.6091 30.9444 24.6863 30.2172 25.5629C29.49 26.4394 28.4714 27.0657 27.3214 27.3433V36.2513C27.3211 36.5699 27.1903 36.8764 26.956 37.1081C26.7217 37.3398 26.4014 37.4792 26.0606 37.4979C25.7199 37.5165 25.3843 37.413 25.1225 37.2085C24.8608 37.004 24.6925 36.714 24.6522 36.3976L24.6429 36.2513V27.3433C23.5386 27.0768 22.5541 26.4885 21.8327 25.6638C21.1113 24.8391 20.6906 23.8212 20.6317 22.758L20.625 22.5005V16.2501C20.6254 15.9315 20.7561 15.625 20.9904 15.3933C21.2248 15.1616 21.545 15.0222 21.8858 15.0035C22.2266 14.9849 22.5621 15.0883 22.8239 15.2928C23.0857 15.4973 23.2539 15.7874 23.2942 16.1038L23.3036 16.2501V22.5005C23.3036 22.9393 23.4274 23.3704 23.6624 23.7505C23.8975 24.1306 24.2357 24.4462 24.6429 24.6656V16.2501C24.6432 15.9315 24.7739 15.625 25.0083 15.3933C25.2426 15.1616 25.5629 15.0222 25.9037 15.0035C26.2444 14.9849 26.58 15.0883 26.8417 15.2928C27.1035 15.4973 27.2717 15.7874 27.3121 16.1038L27.3214 16.2501L27.3228 24.6656C27.6965 24.464 28.0125 24.181 28.2438 23.8408C28.4752 23.5006 28.615 23.1132 28.6513 22.7117L28.6607 22.5005V16.2501C28.6607 15.9185 28.8018 15.6006 29.053 15.3661C29.3041 15.1317 29.6448 15 30 15Z" fill="white"/>
<defs>
<filter id="filter0_f_398_4043" x="16" y="54" width="28" height="12" filterUnits="userSpaceOnUse" color-interpolation-filters="sRGB">
<feFlood flood-opacity="0" result="BackgroundImageFix"/>
<feBlend mode="normal" in="SourceGraphic" in2="BackgroundImageFix" result="shape"/>
<feGaussianBlur stdDeviation="2" result="effect1_foregroundBlur_398_4043"/>
</filter>
</defs>
</svg>
