<svg width="400" height="300" viewBox="0 0 400 300" fill="none" xmlns="http://www.w3.org/2000/svg">
<path d="M2.59104 4.94716H7.63305V118.732H2.59104V4.94716ZM32.8431 4.94716H37.8852V93.9961H78.2213V98.9432H37.8852V103.89H78.2213V108.838H37.8852V113.785H78.2213V118.732H32.8431V4.94716ZM22.7591 4.94716H27.8011V118.732H22.7591V4.94716ZM12.6751 4.94716H17.7171V118.732H12.6751V4.94716Z" fill="white"/>
<path d="M114.636 118.732H109.594V4.94716H114.636V118.732ZM104.552 118.732H99.5098V4.94716H104.552V118.732ZM94.4678 118.732H89.4258V4.94716H94.4678V118.732ZM124.72 93.9961H178.361V98.9432H124.72V103.89H178.361V108.838H124.72V113.785H178.361V118.732H119.678V4.94716H178.361V9.89432H124.72V14.8415H178.361V19.7886H124.72V24.7358H178.361V29.683H124.72V49.4716H152.241V54.4188H124.72V59.3659H152.241V64.3131H124.72V69.2603H152.241V74.2074H124.72V93.9961Z" fill="white"/>
<path d="M188.585 9.89432V4.94716H264.216V9.89432H188.585ZM188.585 19.7886V14.8415H264.216V19.7886H188.585ZM188.585 29.683V24.7358H264.216V29.683H244.048V118.732H239.006V29.683H233.964V118.732H228.922V29.683H223.88V118.732H218.838V29.683H213.796V118.732H208.754V29.683H188.585Z" fill="white"/>
<path d="M274.93 24.7358V4.94716H279.972V24.7358H274.93ZM274.93 39.5773V34.6301C276.891 34.6301 278.525 34.424 279.832 34.0117C281.186 33.5995 282.19 33.1414 282.843 32.6375C283.497 32.1336 283.987 31.3549 284.314 30.3014C284.687 29.2478 284.897 28.4004 284.944 27.7591C284.991 27.072 285.014 26.0642 285.014 24.7358V4.94716H290.056V24.7358C290.056 25.7436 290.033 26.5452 289.986 27.1407C289.986 27.7362 289.893 28.6294 289.706 29.8204C289.519 30.9656 289.239 31.9275 288.866 32.7062C288.492 33.4391 287.932 34.2866 287.185 35.2485C286.485 36.2105 285.598 36.9892 284.524 37.5847C283.497 38.1344 282.166 38.6153 280.532 39.0276C278.898 39.3941 277.031 39.5773 274.93 39.5773ZM274.93 49.4716V44.5244C277.124 44.5244 279.108 44.4099 280.882 44.1809C282.703 43.9061 284.267 43.5854 285.574 43.2189C286.881 42.8525 288.049 42.3028 289.076 41.5699C290.103 40.837 290.943 40.1728 291.597 39.5773C292.25 38.936 292.81 38.0886 293.277 37.035C293.744 35.9356 294.094 35.0195 294.328 34.2866C294.561 33.5537 294.725 32.523 294.818 31.1946C294.958 29.8662 295.028 28.8355 295.028 28.1026C295.075 27.3239 295.098 26.2016 295.098 24.7358V4.94716H300.14V24.7358C300.14 26.2016 300.117 27.3697 300.07 28.24C300.07 29.0646 299.977 30.2556 299.79 31.813C299.65 33.3704 299.44 34.6301 299.16 35.5921C298.88 36.554 298.436 37.7221 297.829 39.0963C297.269 40.4705 296.569 41.5928 295.728 42.4631C294.935 43.3335 293.884 44.2725 292.577 45.2803C291.317 46.2422 289.869 46.998 288.235 47.5477C286.601 48.0974 284.641 48.5555 282.353 48.9219C280.112 49.2884 277.638 49.4716 274.93 49.4716Z" fill="white"/>
<path d="M358.683 49.4716H350.21C346.615 49.4716 344.024 48.5784 342.437 46.7919C340.85 44.9596 340.056 42.5547 340.056 39.5773C340.056 32.9811 345.075 29.683 355.112 29.683C364.542 29.683 371.639 31.0572 376.401 33.8056L372.339 36.8289C369.071 35.363 363.329 34.6301 355.112 34.6301C351.097 34.6301 348.389 35.0653 346.989 35.9356C345.635 36.806 344.958 38.0198 344.958 39.5773C344.958 41.1347 345.331 42.3486 346.078 43.2189C346.825 44.0893 348.203 44.5244 350.21 44.5244H358.894C365.196 44.5244 370.868 45.578 375.91 47.6851C380.999 49.7923 385.177 52.6781 388.445 56.3427C391.713 59.9614 394.211 64.1528 395.938 68.9167C397.666 73.6348 398.529 78.6965 398.529 84.1017C398.529 88.4992 397.899 92.6676 396.639 96.6071C395.378 100.546 393.464 104.165 390.896 107.463C388.375 110.761 385.317 113.624 381.723 116.052C378.175 118.434 373.926 120.289 368.978 121.618C364.076 122.992 358.754 123.679 353.011 123.679C344.001 123.679 335.551 122.328 327.661 119.625C319.818 116.968 313.282 113.235 308.053 108.425L312.115 105.471C316.877 109.685 322.829 112.96 329.972 115.296C337.162 117.587 344.841 118.732 353.011 118.732C359.407 118.732 365.173 117.839 370.308 116.052C375.49 114.22 379.739 111.723 383.053 108.563C386.415 105.402 388.982 101.737 390.756 97.569C392.577 93.4006 393.487 88.9115 393.487 84.1017C393.487 77.7346 392.18 71.9858 389.566 66.8554C386.951 61.6792 382.96 57.4878 377.591 54.2813C372.269 51.0749 365.966 49.4716 358.683 49.4716ZM350.21 54.4188H358.193C367.67 54.4188 375.07 57.2588 380.392 62.9389C385.761 68.6189 388.445 75.6732 388.445 84.1017C388.445 92.6677 385.341 99.7677 379.132 105.402C372.923 110.99 364.216 113.785 353.011 113.785C345.542 113.785 338.562 112.777 332.073 110.761C325.584 108.746 320.191 105.906 315.896 102.241L319.818 99.1493C323.646 102.218 328.455 104.6 334.244 106.295C340.079 107.99 346.335 108.838 353.011 108.838C362.862 108.838 370.378 106.524 375.56 101.898C380.789 97.2713 383.403 91.3392 383.403 84.1017C383.403 76.9558 381.209 71.0467 376.821 66.3744C372.479 61.7021 366.246 59.3659 358.123 59.3659H350.21C343.394 59.3659 338.282 57.5336 334.874 53.8691C331.466 50.2045 329.762 45.4406 329.762 39.5773C329.762 33.714 331.863 28.9501 336.064 25.2855C340.313 21.6209 346.662 19.7886 355.112 19.7886C361.041 19.7886 366.55 20.4757 371.639 21.85C376.727 23.1784 380.929 25.1023 384.244 27.6216L380.252 30.6449C374.416 26.7055 366.036 24.7358 355.112 24.7358C348.063 24.7358 342.904 26.11 339.636 28.8584C336.415 31.5611 334.804 35.134 334.804 39.5773C334.804 44.0664 335.994 47.6622 338.375 50.3648C340.803 53.0675 344.748 54.4188 350.21 54.4188ZM350.21 64.3131H357.913C364.729 64.3131 369.841 66.1683 373.249 69.8786C376.657 73.589 378.361 78.33 378.361 84.1017C378.361 89.965 376.237 94.729 371.989 98.3935C367.787 102.058 361.461 103.89 353.011 103.89C347.082 103.89 341.55 103.226 336.415 101.898C331.326 100.524 327.124 98.5768 323.81 96.0574L327.801 93.0341C333.637 96.9735 342.04 98.9432 353.011 98.9432C360.061 98.9432 365.196 97.5919 368.417 94.8893C371.685 92.1409 373.319 88.545 373.319 84.1017C373.319 79.6585 372.105 76.0855 369.678 73.3829C367.25 70.6345 363.305 69.2603 357.843 69.2603H350.21C340.64 69.2603 333.147 66.466 327.731 60.8776C322.362 55.2433 319.678 48.1432 319.678 39.5773C319.678 31.0114 322.782 23.9342 328.992 18.3457C335.201 12.7115 343.908 9.89432 355.112 9.89432C362.582 9.89432 369.538 10.9021 375.98 12.9176C382.47 14.9331 387.862 17.7731 392.157 21.4377L388.235 24.5297C384.407 21.4606 379.599 19.0786 373.81 17.3838C368.021 15.6889 361.788 14.8415 355.112 14.8415C345.261 14.8415 337.722 17.1547 332.493 21.7812C327.311 26.4078 324.72 32.3398 324.72 39.5773C324.72 46.769 326.914 52.701 331.303 57.3733C335.691 61.9998 341.993 64.3131 350.21 64.3131ZM350.21 74.2074H357.913C361.508 74.2074 364.099 75.1236 365.686 76.9558C367.274 78.7881 368.067 81.1701 368.067 84.1017C368.067 90.698 363.049 93.9961 353.011 93.9961C343.534 93.9961 336.415 92.6218 331.653 89.8734L335.714 86.8502C338.982 88.316 344.748 89.0489 353.011 89.0489C357.026 89.0489 359.711 88.6137 361.064 87.7434C362.465 86.8731 363.165 85.6592 363.165 84.1017C363.165 82.5901 362.768 81.3991 361.975 80.5288C361.228 79.6126 359.827 79.1546 357.773 79.1546H350.21C343.768 79.1546 337.932 78.1239 332.703 76.0626C327.521 74.0013 323.249 71.1612 319.888 67.5425C316.573 63.9237 314.029 59.7324 312.255 54.9685C310.481 50.2045 309.594 45.0741 309.594 39.5773C309.594 35.1798 310.224 31.0114 311.485 27.072C312.745 23.1326 314.636 19.5138 317.157 16.2157C319.725 12.9176 322.782 10.0775 326.331 7.69558C329.925 5.26781 334.174 3.38972 339.076 2.06132C344.024 0.687106 349.37 0 355.112 0C364.122 0 372.549 1.35131 380.392 4.05392C388.235 6.71073 394.771 10.444 400 15.2537L395.938 18.2083C391.176 13.9941 385.224 10.7418 378.081 8.4514C370.938 6.11524 363.282 4.94716 355.112 4.94716C348.716 4.94716 342.927 5.8633 337.745 7.69558C332.61 9.48206 328.361 11.9556 325 15.1163C321.685 18.277 319.118 21.9416 317.297 26.11C315.523 30.2785 314.636 34.7675 314.636 39.5773C314.636 46.0361 315.966 51.8536 318.627 57.0298C321.289 62.206 325.35 66.3744 330.812 69.5351C336.275 72.65 342.74 74.2074 350.21 74.2074Z" fill="white"/>
<path d="M95.2381 235.196H100.28V294.631H95.2381V235.196ZM115.406 235.196H120.448V294.631H115.406V235.196ZM105.322 235.196H110.364V294.631H105.322V235.196ZM90.1961 235.196V294.631C81.3259 297.929 72.1289 299.578 62.605 299.578C54.3417 299.578 46.4286 298.089 38.8655 295.112C31.3025 292.134 24.6499 288.012 18.9076 282.744C13.1653 277.43 8.56676 270.88 5.11204 263.093C1.70402 255.26 0 246.808 0 237.739C0 229.356 1.65733 221.363 4.97199 213.759C8.33333 206.109 12.8151 199.535 18.4174 194.039C24.0663 188.496 30.7656 184.099 38.5154 180.846C46.3119 177.548 54.4818 175.899 63.0252 175.899C73.6695 175.899 83.5668 178.327 92.7171 183.182C101.867 188.038 109.337 194.634 115.126 202.971L110.924 205.651C105.602 198.001 98.7162 191.954 90.2661 187.511C81.8627 183.068 72.7824 180.846 63.0252 180.846C55.1821 180.846 47.6657 182.358 40.4762 185.381C33.3333 188.359 27.1709 192.39 21.9888 197.474C16.8067 202.559 12.6751 208.628 9.59384 215.682C6.55929 222.691 5.04202 230.043 5.04202 237.739C5.04202 246.03 6.60598 253.771 9.73389 260.963C12.9085 268.154 17.1102 274.178 22.3389 279.034C27.6144 283.889 33.7302 287.714 40.6863 290.508C47.6424 293.257 54.8786 294.631 62.395 294.631C70.2848 294.631 77.8711 293.417 85.1541 290.989V286.248C78.1979 288.539 70.8917 289.684 63.2353 289.684C57.6797 289.684 52.2642 288.928 46.9888 287.416C41.76 285.859 36.9048 283.591 32.423 280.614C27.9879 277.591 24.0896 274.018 20.7283 269.895C17.4136 265.727 14.7993 260.894 12.8852 255.397C11.0177 249.855 10.084 243.968 10.084 237.739C10.084 228.348 12.4416 219.668 17.1569 211.697C21.9188 203.727 28.3613 197.428 36.4846 192.802C44.6078 188.13 53.4547 185.793 63.0252 185.793C71.9888 185.793 80.3221 187.855 88.0252 191.977C95.7283 196.054 102.007 201.597 106.863 208.605L102.661 211.285C98.2726 204.964 92.577 199.971 85.5742 196.306C78.6181 192.596 71.1018 190.741 63.0252 190.741C56.5359 190.741 50.3268 191.977 44.3978 194.451C38.4687 196.924 33.3567 200.268 29.0616 204.483C24.8133 208.651 21.4286 213.644 18.9076 219.462C16.3866 225.279 15.1261 231.371 15.1261 237.739C15.1261 243.464 15.9664 248.847 17.6471 253.886C19.3744 258.879 21.732 263.253 24.7199 267.009C27.7544 270.72 31.2792 273.926 35.2941 276.629C39.3091 279.286 43.6741 281.301 48.3894 282.675C53.1513 284.049 58.0299 284.737 63.0252 284.737C70.775 284.737 78.1513 283.454 85.1541 280.889V275.942C78.2446 278.553 71.0317 279.858 63.5154 279.858C57.8198 279.858 52.381 278.919 47.1989 277.041C42.0168 275.117 37.395 272.414 33.3333 268.933C29.3184 265.452 26.1204 261.009 23.7395 255.603C21.3585 250.198 20.1681 244.243 20.1681 237.739C20.1681 230.135 22.0822 223.103 25.9104 216.644C29.7386 210.186 34.944 205.078 41.5266 201.322C48.1092 197.566 55.2754 195.688 63.0252 195.688C70.2614 195.688 76.9841 197.337 83.1933 200.635C89.4491 203.933 94.5378 208.422 98.4594 214.102L94.2577 216.782C90.803 211.835 86.3212 207.918 80.8123 205.032C75.3501 202.101 69.4211 200.635 63.0252 200.635C56.1625 200.635 49.8366 202.307 44.0476 205.651C38.2586 208.949 33.6601 213.438 30.2521 219.118C26.8908 224.798 25.2101 231.005 25.2101 237.739C25.2101 242.411 25.887 246.763 27.2409 250.794C28.5948 254.825 30.4622 258.306 32.8431 261.238C35.2241 264.169 38.0019 266.666 41.1765 268.727C44.3978 270.788 47.8525 272.346 51.5406 273.399C55.2288 274.407 59.057 274.911 63.0252 274.911C70.915 274.911 78.2913 273.376 85.1541 270.307V265.566C78.5247 268.452 71.3585 269.895 63.6555 269.895C59.2204 269.895 55.042 269.231 51.1204 267.902C47.1989 266.574 43.6508 264.627 40.4762 262.062C37.3483 259.497 34.8506 256.13 32.9832 251.962C31.1625 247.747 30.2521 243.006 30.2521 237.739C30.2521 233.387 31.1158 229.241 32.8431 225.302C34.5705 221.317 36.9048 217.881 39.8459 214.995C42.7871 212.11 46.2652 209.819 50.2801 208.124C54.3417 206.429 58.5901 205.582 63.0252 205.582C68.5808 205.582 73.7395 206.865 78.5014 209.43C83.2633 211.949 87.1382 215.385 90.1261 219.736L85.9944 222.416C83.4734 218.752 80.1821 215.866 76.1204 213.759C72.1055 211.606 67.7404 210.529 63.0252 210.529C55.3688 210.529 48.8329 213.186 43.4174 218.5C38.0019 223.813 35.2941 230.226 35.2941 237.739C35.2941 242.365 36.0644 246.465 37.605 250.038C39.1457 253.565 41.2465 256.405 43.9076 258.558C46.6153 260.665 49.6032 262.268 52.8711 263.368C56.1858 264.421 59.7339 264.948 63.5154 264.948C71.2652 264.948 78.4781 263.368 85.1541 260.207V235.196H90.1961Z" fill="white"/>
<path d="M173.669 218.5C168.254 223.813 165.546 230.226 165.546 237.739C165.546 245.251 168.254 251.664 173.669 256.978C179.085 262.291 185.621 264.948 193.277 264.948C200.934 264.948 207.47 262.291 212.885 256.978C218.301 251.664 221.008 245.251 221.008 237.739C221.008 230.226 218.301 223.813 212.885 218.5C207.47 213.186 200.934 210.529 193.277 210.529C185.621 210.529 179.085 213.186 173.669 218.5ZM163.095 250.244C161.368 246.259 160.504 242.09 160.504 237.739C160.504 233.387 161.368 229.241 163.095 225.302C164.823 221.317 167.157 217.881 170.098 214.995C173.039 212.11 176.517 209.819 180.532 208.124C184.594 206.429 188.842 205.582 193.277 205.582C197.712 205.582 201.937 206.429 205.952 208.124C210.014 209.819 213.515 212.11 216.457 214.995C219.398 217.881 221.732 221.317 223.459 225.302C225.187 229.241 226.05 233.387 226.05 237.739C226.05 242.09 225.187 246.259 223.459 250.244C221.732 254.183 219.398 257.596 216.457 260.482C213.515 263.368 210.014 265.658 205.952 267.353C201.937 269.048 197.712 269.895 193.277 269.895C188.842 269.895 184.594 269.048 180.532 267.353C176.517 265.658 173.039 263.368 170.098 260.482C167.157 257.596 164.823 254.183 163.095 250.244ZM160.504 219.118C157.143 224.798 155.462 231.005 155.462 237.739C155.462 244.472 157.143 250.679 160.504 256.359C163.912 262.039 168.511 266.551 174.3 269.895C180.089 273.193 186.415 274.842 193.277 274.842C200.14 274.842 206.466 273.193 212.255 269.895C218.044 266.551 222.619 262.039 225.98 256.359C229.388 250.679 231.092 244.472 231.092 237.739C231.092 231.005 229.388 224.798 225.98 219.118C222.619 213.438 218.044 208.949 212.255 205.651C206.466 202.307 200.14 200.635 193.277 200.635C186.415 200.635 180.089 202.307 174.3 205.651C168.511 208.949 163.912 213.438 160.504 219.118ZM156.162 258.833C152.334 252.374 150.42 245.343 150.42 237.739C150.42 230.135 152.334 223.103 156.162 216.644C159.991 210.186 165.196 205.078 171.779 201.322C178.361 197.566 185.528 195.688 193.277 195.688C201.027 195.688 208.193 197.566 214.776 201.322C221.359 205.078 226.564 210.186 230.392 216.644C234.22 223.103 236.134 230.135 236.134 237.739C236.134 245.343 234.22 252.374 230.392 258.833C226.564 265.292 221.359 270.399 214.776 274.155C208.193 277.911 201.027 279.789 193.277 279.789C185.528 279.789 178.361 277.911 171.779 274.155C165.196 270.399 159.991 265.292 156.162 258.833ZM149.16 219.462C146.639 225.279 145.378 231.371 145.378 237.739C145.378 244.106 146.639 250.198 149.16 256.016C151.681 261.833 155.065 266.849 159.314 271.063C163.609 275.232 168.721 278.553 174.65 281.026C180.579 283.5 186.788 284.737 193.277 284.737C199.767 284.737 205.976 283.5 211.905 281.026C217.834 278.553 222.923 275.232 227.171 271.063C231.466 266.849 234.874 261.833 237.395 256.016C239.916 250.198 241.176 244.106 241.176 237.739C241.176 231.371 239.916 225.279 237.395 219.462C234.874 213.644 231.466 208.651 227.171 204.483C222.923 200.268 217.834 196.924 211.905 194.451C205.976 191.977 199.767 190.741 193.277 190.741C186.788 190.741 180.579 191.977 174.65 194.451C168.721 196.924 163.609 200.268 159.314 204.483C155.065 208.651 151.681 213.644 149.16 219.462ZM147.409 263.78C142.694 255.809 140.336 247.129 140.336 237.739C140.336 228.348 142.694 219.668 147.409 211.697C152.171 203.727 158.613 197.428 166.737 192.802C174.86 188.13 183.707 185.793 193.277 185.793C202.848 185.793 211.695 188.13 219.818 192.802C227.941 197.428 234.36 203.727 239.076 211.697C243.838 219.668 246.218 228.348 246.218 237.739C246.218 247.129 243.838 255.809 239.076 263.78C234.36 271.75 227.941 278.072 219.818 282.744C211.695 287.37 202.848 289.684 193.277 289.684C183.707 289.684 174.86 287.37 166.737 282.744C158.613 278.072 152.171 271.75 147.409 263.78ZM139.846 215.682C136.811 222.691 135.294 230.043 135.294 237.739C135.294 245.434 136.811 252.809 139.846 259.863C142.927 266.872 147.059 272.918 152.241 278.003C157.423 283.088 163.585 287.141 170.728 290.165C177.918 293.142 185.434 294.631 193.277 294.631C201.12 294.631 208.613 293.142 215.756 290.165C222.946 287.141 229.132 283.088 234.314 278.003C239.496 272.918 243.604 266.872 246.639 259.863C249.72 252.809 251.261 245.434 251.261 237.739C251.261 230.043 249.72 222.691 246.639 215.682C243.604 208.628 239.496 202.559 234.314 197.474C229.132 192.39 222.946 188.359 215.756 185.381C208.613 182.358 201.12 180.846 193.277 180.846C185.434 180.846 177.918 182.358 170.728 185.381C163.585 188.359 157.423 192.39 152.241 197.474C147.059 202.559 142.927 208.628 139.846 215.682ZM135.224 261.787C131.909 254.137 130.252 246.121 130.252 237.739C130.252 229.356 131.909 221.363 135.224 213.759C138.585 206.109 143.067 199.535 148.669 194.039C154.318 188.496 161.018 184.099 168.768 180.846C176.564 177.548 184.734 175.899 193.277 175.899C201.821 175.899 209.967 177.548 217.717 180.846C225.514 184.099 232.213 188.496 237.815 194.039C243.464 199.535 247.946 206.109 251.261 213.759C254.622 221.363 256.303 229.356 256.303 237.739C256.303 246.121 254.622 254.137 251.261 261.787C247.946 269.391 243.464 275.965 237.815 281.507C232.213 287.004 225.514 291.379 217.717 294.631C209.967 297.929 201.821 299.578 193.277 299.578C184.734 299.578 176.564 297.929 168.768 294.631C161.018 291.379 154.318 287.004 148.669 281.507C143.067 275.965 138.585 269.391 135.224 261.787Z" fill="white"/>
<path d="M266.807 279.789V274.842H302.101V279.789H266.807ZM266.807 289.684V284.737H302.101V289.684H266.807ZM266.807 299.578V294.631H302.101V299.578H266.807ZM297.059 180.846H302.101V264.948H297.059V180.846ZM286.975 180.846H292.017V264.948H286.975V180.846ZM276.891 180.846H281.933V264.948H276.891V180.846ZM266.807 180.846H271.849V264.948H266.807V180.846Z" fill="white"/>
</svg>
